<svg width="1600" height="900" viewBox="0 0 1600 900" fill="none" xmlns="http://www.w3.org/2000/svg">
  <rect width="1600" height="900" rx="72" fill="url(#paint0_radial)"/>
  <g opacity="0.72" filter="url(#filter0_f)">
    <ellipse cx="394" cy="316" rx="260" ry="200" fill="#8EF0FF"/>
  </g>
  <g opacity="0.65" filter="url(#filter1_f)">
    <ellipse cx="1214" cy="586" rx="320" ry="240" fill="#9B8BFF"/>
  </g>
  <g opacity="0.88">
    <path d="M806 198C1068 198 1210 340 1210 512C1210 684 1068 774 806 774C544 774 402 640 402 494C402 314 542 198 806 198Z" fill="url(#paint1_linear)" opacity="0.94"/>
    <path d="M806 236C1040 236 1148 360 1148 508C1148 656 1040 744 806 744C572 744 464 642 464 496C464 328 572 236 806 236Z" stroke="url(#paint2_linear)" stroke-width="3" stroke-dasharray="20 26"/>
    <path d="M632 404C680 320 930 320 978 404C1008 460 1008 524 978 580C930 664 680 664 632 580C604 524 604 460 632 404Z" stroke="url(#paint3_linear)" stroke-width="4.5"/>
    <path d="M722 352C722 352 762 410 762 520C762 630 722 688 722 688" stroke="#88E7FF" stroke-width="3" stroke-dasharray="12 22" stroke-linecap="round"/>
    <path d="M890 352C890 352 850 414 850 520C850 626 890 688 890 688" stroke="#B5A1FF" stroke-width="3" stroke-dasharray="12 22" stroke-linecap="round"/>
    <path d="M806 280V736" stroke="url(#paint4_linear)" stroke-width="2.5" stroke-dasharray="8 18"/>
    <path d="M522 512H1094" stroke="url(#paint5_linear)" stroke-width="2.5" stroke-dasharray="8 18"/>
  </g>
  <g opacity="0.7">
    <circle cx="582" cy="344" r="28" fill="url(#paint6_radial)"/>
    <circle cx="1028" cy="352" r="24" fill="url(#paint7_radial)"/>
    <circle cx="618" cy="660" r="22" fill="url(#paint8_radial)"/>
    <circle cx="996" cy="668" r="22" fill="url(#paint9_radial)"/>
  </g>
  <path d="M484 220H1126" stroke="url(#paint10_linear)" stroke-width="5" stroke-linecap="round" stroke-dasharray="46 24" opacity="0.32"/>
  <path d="M484 760H1126" stroke="url(#paint11_linear)" stroke-width="5" stroke-linecap="round" stroke-dasharray="46 24" opacity="0.32"/>
  <defs>
    <filter id="filter0_f" x="-70" y="-84" width="928" height="800" filterUnits="userSpaceOnUse" color-interpolation-filters="sRGB">
      <feFlood flood-opacity="0" result="BackgroundImageFix"/>
      <feBlend in="SourceGraphic" in2="BackgroundImageFix" result="shape"/>
      <feGaussianBlur stdDeviation="102" result="effect1_foregroundBlur"/>
    </filter>
    <filter id="filter1_f" x="690" y="60" width="1048" height="1052" filterUnits="userSpaceOnUse" color-interpolation-filters="sRGB">
      <feFlood flood-opacity="0" result="BackgroundImageFix"/>
      <feBlend in="SourceGraphic" in2="BackgroundImageFix" result="shape"/>
      <feGaussianBlur stdDeviation="108" result="effect1_foregroundBlur"/>
    </filter>
    <radialGradient id="paint0_radial" cx="0" cy="0" r="1" gradientUnits="userSpaceOnUse" gradientTransform="translate(408 210) rotate(26) scale(1240 1000)">
      <stop stop-color="#0E1726"/>
      <stop offset="1" stop-color="#080C14"/>
    </radialGradient>
    <linearGradient id="paint1_linear" x1="402" y1="198" x2="1210" y2="774" gradientUnits="userSpaceOnUse">
      <stop stop-color="#132137"/>
      <stop offset="1" stop-color="#0D1424"/>
    </linearGradient>
    <linearGradient id="paint2_linear" x1="464" y1="236" x2="1148" y2="744" gradientUnits="userSpaceOnUse">
      <stop stop-color="#7EEAFF"/>
      <stop offset="1" stop-color="#B9ACFF"/>
    </linearGradient>
    <linearGradient id="paint3_linear" x1="632" y1="356" x2="978" y2="632" gradientUnits="userSpaceOnUse">
      <stop stop-color="#7EEAFF"/>
      <stop offset="1" stop-color="#BFAEFF"/>
    </linearGradient>
    <linearGradient id="paint4_linear" x1="806" y1="280" x2="806" y2="736" gradientUnits="userSpaceOnUse">
      <stop stop-color="#94F0FF"/>
      <stop offset="1" stop-color="#C9BCFF"/>
    </linearGradient>
    <linearGradient id="paint5_linear" x1="522" y1="512" x2="1094" y2="512" gradientUnits="userSpaceOnUse">
      <stop stop-color="#94F0FF"/>
      <stop offset="1" stop-color="#C9BCFF"/>
    </linearGradient>
    <radialGradient id="paint6_radial" cx="0" cy="0" r="1" gradientUnits="userSpaceOnUse" gradientTransform="translate(582 344) rotate(90) scale(28)">
      <stop stop-color="#D4F9FF"/>
      <stop offset="1" stop-color="#8EF0FF" stop-opacity="0"/>
    </radialGradient>
    <radialGradient id="paint7_radial" cx="0" cy="0" r="1" gradientUnits="userSpaceOnUse" gradientTransform="translate(1028 352) rotate(90) scale(24)">
      <stop stop-color="#E8E0FF"/>
      <stop offset="1" stop-color="#9B8BFF" stop-opacity="0"/>
    </radialGradient>
    <radialGradient id="paint8_radial" cx="0" cy="0" r="1" gradientUnits="userSpaceOnUse" gradientTransform="translate(618 660) rotate(90) scale(22)">
      <stop stop-color="#D4F9FF"/>
      <stop offset="1" stop-color="#8EF0FF" stop-opacity="0"/>
    </radialGradient>
    <radialGradient id="paint9_radial" cx="0" cy="0" r="1" gradientUnits="userSpaceOnUse" gradientTransform="translate(996 668) rotate(90) scale(22)">
      <stop stop-color="#E8E0FF"/>
      <stop offset="1" stop-color="#9B8BFF" stop-opacity="0"/>
    </radialGradient>
    <linearGradient id="paint10_linear" x1="484" y1="220" x2="1126" y2="220" gradientUnits="userSpaceOnUse">
      <stop stop-color="#70E4FF" stop-opacity="0"/>
      <stop offset="0.5" stop-color="#A5F1FF"/>
      <stop offset="1" stop-color="#CDBFFF" stop-opacity="0"/>
    </linearGradient>
    <linearGradient id="paint11_linear" x1="484" y1="760" x2="1126" y2="760" gradientUnits="userSpaceOnUse">
      <stop stop-color="#70E4FF" stop-opacity="0"/>
      <stop offset="0.5" stop-color="#A5F1FF"/>
      <stop offset="1" stop-color="#CDBFFF" stop-opacity="0"/>
    </linearGradient>
  </defs>
</svg>
