<svg width="1400" height="840" viewBox="0 0 1400 840" fill="none" xmlns="http://www.w3.org/2000/svg">
  <rect width="1400" height="840" rx="64" fill="url(#paint0_radial)"/>
  <g opacity="0.65" filter="url(#filter0_f)">
    <ellipse cx="344" cy="270" rx="216" ry="176" fill="#FDAA8B"/>
  </g>
  <g opacity="0.58" filter="url(#filter1_f)">
    <ellipse cx="1036" cy="568" rx="280" ry="214" fill="#FBD2A5"/>
  </g>
  <g opacity="0.9">
    <path d="M712 204C896 204 1002 320 1002 458C1002 596 896 684 712 684C528 684 422 600 422 454C422 288 526 204 712 204Z" fill="url(#paint1_linear)" opacity="0.92"/>
    <path d="M712 240C872 240 946 344 946 458C946 572 872 640 712 640C552 640 478 568 478 448C478 310 552 240 712 240Z" stroke="url(#paint2_linear)" stroke-width="2.5" stroke-dasharray="16 20"/>
    <path d="M564 392C600 328 824 328 860 392C884 436 884 486 860 530C824 594 600 594 564 530C540 486 540 436 564 392Z" stroke="url(#paint3_linear)" stroke-width="3.5"/>
    <path d="M628 348C628 348 660 398 660 476C660 554 628 604 628 604" stroke="#FEC5A1" stroke-width="2.5" stroke-dasharray="10 18" stroke-linecap="round"/>
    <path d="M796 348C796 348 764 402 764 476C764 550 796 604 796 604" stroke="#FFD6AF" stroke-width="2.5" stroke-dasharray="10 18" stroke-linecap="round"/>
    <path d="M712 280V652" stroke="url(#paint4_linear)" stroke-width="2" stroke-dasharray="6 16"/>
    <path d="M512 458H912" stroke="url(#paint5_linear)" stroke-width="2" stroke-dasharray="6 16"/>
    <g opacity="0.62">
      <circle cx="574" cy="316" r="22" fill="url(#paint6_radial)"/>
      <circle cx="850" cy="322" r="20" fill="url(#paint7_radial)"/>
      <circle cx="600" cy="560" r="18" fill="url(#paint8_radial)"/>
      <circle cx="826" cy="566" r="18" fill="url(#paint9_radial)"/>
    </g>
    <path d="M478 244H946" stroke="url(#paint10_linear)" stroke-width="3.5" stroke-linecap="round" stroke-dasharray="34 18" opacity="0.28"/>
    <path d="M478 636H946" stroke="url(#paint11_linear)" stroke-width="3.5" stroke-linecap="round" stroke-dasharray="34 18" opacity="0.28"/>
  </g>
  <defs>
    <filter id="filter0_f" x="0" y="-14" width="688" height="568" filterUnits="userSpaceOnUse" color-interpolation-filters="sRGB">
      <feFlood flood-opacity="0" result="BackgroundImageFix"/>
      <feBlend in="SourceGraphic" in2="BackgroundImageFix" result="shape"/>
      <feGaussianBlur stdDeviation="84" result="effect1_foregroundBlur"/>
    </filter>
    <filter id="filter1_f" x="620" y="142" width="832" height="852" filterUnits="userSpaceOnUse" color-interpolation-filters="sRGB">
      <feFlood flood-opacity="0" result="BackgroundImageFix"/>
      <feBlend in="SourceGraphic" in2="BackgroundImageFix" result="shape"/>
      <feGaussianBlur stdDeviation="88" result="effect1_foregroundBlur"/>
    </filter>
    <radialGradient id="paint0_radial" cx="0" cy="0" r="1" gradientUnits="userSpaceOnUse" gradientTransform="translate(352 194) rotate(28) scale(1012 820)">
      <stop stop-color="#1A1416"/>
      <stop offset="1" stop-color="#100B10"/>
    </radialGradient>
    <linearGradient id="paint1_linear" x1="422" y1="204" x2="1002" y2="684" gradientUnits="userSpaceOnUse">
      <stop stop-color="#2B1A24"/>
      <stop offset="1" stop-color="#1A1118"/>
    </linearGradient>
    <linearGradient id="paint2_linear" x1="478" y1="240" x2="946" y2="640" gradientUnits="userSpaceOnUse">
      <stop stop-color="#FFB694"/>
      <stop offset="1" stop-color="#FFD6A9"/>
    </linearGradient>
    <linearGradient id="paint3_linear" x1="564" y1="356" x2="860" y2="566" gradientUnits="userSpaceOnUse">
      <stop stop-color="#FFB48C"/>
      <stop offset="1" stop-color="#FFD4A8"/>
    </linearGradient>
    <linearGradient id="paint4_linear" x1="712" y1="280" x2="712" y2="652" gradientUnits="userSpaceOnUse">
      <stop stop-color="#FFC29E"/>
      <stop offset="1" stop-color="#FFE2BC"/>
    </linearGradient>
    <linearGradient id="paint5_linear" x1="512" y1="458" x2="912" y2="458" gradientUnits="userSpaceOnUse">
      <stop stop-color="#FFC29E"/>
      <stop offset="1" stop-color="#FFE2BC"/>
    </linearGradient>
    <radialGradient id="paint6_radial" cx="0" cy="0" r="1" gradientUnits="userSpaceOnUse" gradientTransform="translate(574 316) rotate(90) scale(22)">
      <stop stop-color="#FFD5B8"/>
      <stop offset="1" stop-color="#FDAA8B" stop-opacity="0"/>
    </radialGradient>
    <radialGradient id="paint7_radial" cx="0" cy="0" r="1" gradientUnits="userSpaceOnUse" gradientTransform="translate(850 322) rotate(90) scale(20)">
      <stop stop-color="#FFE6C8"/>
      <stop offset="1" stop-color="#FBD2A5" stop-opacity="0"/>
    </radialGradient>
    <radialGradient id="paint8_radial" cx="0" cy="0" r="1" gradientUnits="userSpaceOnUse" gradientTransform="translate(600 560) rotate(90) scale(18)">
      <stop stop-color="#FFD5B8"/>
      <stop offset="1" stop-color="#FDAA8B" stop-opacity="0"/>
    </radialGradient>
    <radialGradient id="paint9_radial" cx="0" cy="0" r="1" gradientUnits="userSpaceOnUse" gradientTransform="translate(826 566) rotate(90) scale(18)">
      <stop stop-color="#FFE6C8"/>
      <stop offset="1" stop-color="#FBD2A5" stop-opacity="0"/>
    </radialGradient>
    <linearGradient id="paint10_linear" x1="478" y1="244" x2="946" y2="244" gradientUnits="userSpaceOnUse">
      <stop stop-color="#FFA870" stop-opacity="0"/>
      <stop offset="0.5" stop-color="#FFC8A0"/>
      <stop offset="1" stop-color="#FFE9C8" stop-opacity="0"/>
    </linearGradient>
    <linearGradient id="paint11_linear" x1="478" y1="636" x2="946" y2="636" gradientUnits="userSpaceOnUse">
      <stop stop-color="#FFA870" stop-opacity="0"/>
      <stop offset="0.5" stop-color="#FFC8A0"/>
      <stop offset="1" stop-color="#FFE9C8" stop-opacity="0"/>
    </linearGradient>
  </defs>
</svg>
