<svg width="720" height="480" viewBox="0 0 720 480" fill="none" xmlns="http://www.w3.org/2000/svg">
  <rect width="720" height="480" rx="28" fill="url(#paint0_linear)" />
  <rect x="32" y="32" width="656" height="416" rx="24" fill="url(#paint1_radial)" fill-opacity="0.95" stroke="url(#paint2_linear)" stroke-width="1.5" />
  <g filter="url(#filter0_f)">
    <ellipse cx="216" cy="156" rx="92" ry="72" fill="#6F7BFF" fill-opacity="0.28" />
  </g>
  <g filter="url(#filter1_f)">
    <ellipse cx="532" cy="332" rx="108" ry="84" fill="#FF97C1" fill-opacity="0.24" />
  </g>
  <g opacity="0.5" stroke="#E6E9F8" stroke-width="1.2" stroke-linecap="round">
    <path d="M108 152H612" />
    <path d="M108 208H612" />
    <path d="M108 264H612" />
    <path d="M108 320H612" />
    <path d="M108 376H612" />
    <path d="M168 112V408" />
    <path d="M224 112V408" />
    <path d="M484 112V408" />
    <path d="M540 112V408" />
  </g>
  <g opacity="0.85">
    <path d="M160 344H560" stroke="url(#paint3_linear)" stroke-width="3.2" stroke-linecap="round" />
    <rect x="192" y="184" width="112" height="160" rx="18" fill="url(#paint4_linear)" stroke="url(#paint5_linear)" stroke-width="1.6" />
    <rect x="208" y="244" width="80" height="72" rx="14" fill="#121926" fill-opacity="0.9" stroke="#5360FF" stroke-opacity="0.4" />
    <rect x="216" y="204" width="64" height="24" rx="8" fill="#0E141F" stroke="#7F8EFF" stroke-opacity="0.5" />
    <path d="M224 256H272" stroke="#C3C9FF" stroke-width="1.4" stroke-linecap="round" />
    <path d="M224 272H272" stroke="#C3C9FF" stroke-width="1.4" stroke-linecap="round" />
    <path d="M224 288H272" stroke="#C3C9FF" stroke-width="1.4" stroke-linecap="round" />
  </g>
  <g opacity="0.9">
    <rect x="320" y="204" width="144" height="140" rx="22" fill="url(#paint6_linear)" stroke="url(#paint7_linear)" stroke-width="1.6" />
    <rect x="344" y="228" width="96" height="70" rx="14" fill="url(#paint8_linear)" />
    <path d="M344 256H440" stroke="#0E141F" stroke-opacity="0.45" stroke-width="1.4" />
    <path d="M344 280H440" stroke="#0E141F" stroke-opacity="0.45" stroke-width="1.4" />
    <g opacity="0.8">
      <circle cx="364" cy="248" r="6" fill="#8EA0FF" />
      <circle cx="392" cy="248" r="6" fill="#B7C2FF" />
      <circle cx="420" cy="248" r="6" fill="#FF9DC5" />
    </g>
    <g opacity="0.35" stroke="#9DA8FF" stroke-width="1.2">
      <path d="M364 296H420" stroke-linecap="round" />
      <path d="M352 312H432" stroke-linecap="round" />
      <path d="M340 328H444" stroke-linecap="round" />
    </g>
    <rect x="360" y="340" width="64" height="20" rx="8" fill="#121926" stroke="#FF9ECF" stroke-opacity="0.4" />
  </g>
  <g opacity="0.88">
    <path d="M496 184H600V296C600 314.225 585.225 329 567 329H529C510.775 329 496 314.225 496 296V184Z" fill="url(#paint9_linear)" stroke="url(#paint10_linear)" stroke-width="1.6" />
    <path d="M512 204H584" stroke="#141A28" stroke-opacity="0.5" stroke-width="1.4" />
    <path d="M512 228H584" stroke="#141A28" stroke-opacity="0.5" stroke-width="1.4" />
    <path d="M512 252H584" stroke="#141A28" stroke-opacity="0.5" stroke-width="1.4" />
    <path d="M512 276H560" stroke="#141A28" stroke-opacity="0.5" stroke-width="1.4" />
    <circle cx="568" cy="276" r="6" fill="#FF9CC8" />
    <rect x="520" y="312" width="56" height="12" rx="6" fill="#121926" stroke="#6F7CFF" stroke-opacity="0.5" />
  </g>
  <g opacity="0.72" stroke-linecap="round" stroke-width="1.4">
    <path d="M196 156L228 132" stroke="url(#paint11_linear)" />
    <path d="M228 132L268 148" stroke="url(#paint12_linear)" />
    <path d="M268 148L288 112" stroke="url(#paint13_linear)" />
    <path d="M556 364L528 392" stroke="url(#paint14_linear)" />
    <path d="M528 392L492 376" stroke="url(#paint15_linear)" />
    <path d="M492 376L468 404" stroke="url(#paint16_linear)" />
  </g>
  <g opacity="0.36" stroke="#E8EBFA" stroke-linecap="round">
    <path d="M112 408H608" stroke-width="1.6" />
    <path d="M112 120H608" stroke-width="1.2" />
    <path d="M176 88V424" stroke-width="1.2" />
    <path d="M544 88V424" stroke-width="1.2" />
  </g>
  <defs>
    <linearGradient id="paint0_linear" x1="80" y1="48" x2="640" y2="432" gradientUnits="userSpaceOnUse">
      <stop stop-color="#0F141F" />
      <stop offset="1" stop-color="#14101C" />
    </linearGradient>
    <radialGradient id="paint1_radial" cx="0" cy="0" r="1" gradientUnits="userSpaceOnUse" gradientTransform="translate(196 120) rotate(28) scale(520 392)">
      <stop stop-color="#151C2A" />
      <stop offset="1" stop-color="#0D131F" />
    </radialGradient>
    <linearGradient id="paint2_linear" x1="80" y1="72" x2="620" y2="392" gradientUnits="userSpaceOnUse">
      <stop stop-color="#5F6EFF" stop-opacity="0.5" />
      <stop offset="1" stop-color="#FF76B5" stop-opacity="0.5" />
    </linearGradient>
    <linearGradient id="paint3_linear" x1="160" y1="344" x2="560" y2="344" gradientUnits="userSpaceOnUse">
      <stop stop-color="#7A8EFF" />
      <stop offset="1" stop-color="#FF90C6" />
    </linearGradient>
    <linearGradient id="paint4_linear" x1="192" y1="184" x2="304" y2="344" gradientUnits="userSpaceOnUse">
      <stop stop-color="#1B2332" />
      <stop offset="1" stop-color="#121926" />
    </linearGradient>
    <linearGradient id="paint5_linear" x1="192" y1="184" x2="304" y2="344" gradientUnits="userSpaceOnUse">
      <stop stop-color="#7D8CFF" stop-opacity="0.55" />
      <stop offset="1" stop-color="#FF8BC5" stop-opacity="0.55" />
    </linearGradient>
    <linearGradient id="paint6_linear" x1="320" y1="204" x2="464" y2="344" gradientUnits="userSpaceOnUse">
      <stop stop-color="#1A2232" />
      <stop offset="1" stop-color="#121926" />
    </linearGradient>
    <linearGradient id="paint7_linear" x1="320" y1="204" x2="464" y2="344" gradientUnits="userSpaceOnUse">
      <stop stop-color="#7E8CFF" stop-opacity="0.55" />
      <stop offset="1" stop-color="#FF8CC6" stop-opacity="0.55" />
    </linearGradient>
    <linearGradient id="paint8_linear" x1="344" y1="228" x2="440" y2="298" gradientUnits="userSpaceOnUse">
      <stop stop-color="#161E2C" />
      <stop offset="1" stop-color="#131A27" />
    </linearGradient>
    <linearGradient id="paint9_linear" x1="496" y1="184" x2="600" y2="329" gradientUnits="userSpaceOnUse">
      <stop stop-color="#1C2434" />
      <stop offset="1" stop-color="#121926" />
    </linearGradient>
    <linearGradient id="paint10_linear" x1="496" y1="184" x2="600" y2="329" gradientUnits="userSpaceOnUse">
      <stop stop-color="#7C8BFF" stop-opacity="0.55" />
      <stop offset="1" stop-color="#FF89C4" stop-opacity="0.55" />
    </linearGradient>
    <linearGradient id="paint11_linear" x1="196" y1="156" x2="228" y2="132" gradientUnits="userSpaceOnUse">
      <stop stop-color="#7C8BFF" />
      <stop offset="1" stop-color="#FF8FC5" />
    </linearGradient>
    <linearGradient id="paint12_linear" x1="228" y1="132" x2="268" y2="148" gradientUnits="userSpaceOnUse">
      <stop stop-color="#FF8FC5" />
      <stop offset="1" stop-color="#8191FF" />
    </linearGradient>
    <linearGradient id="paint13_linear" x1="268" y1="148" x2="288" y2="112" gradientUnits="userSpaceOnUse">
      <stop stop-color="#8191FF" />
      <stop offset="1" stop-color="#FF9CCE" />
    </linearGradient>
    <linearGradient id="paint14_linear" x1="556" y1="364" x2="528" y2="392" gradientUnits="userSpaceOnUse">
      <stop stop-color="#FF8FC5" />
      <stop offset="1" stop-color="#7E8EFF" />
    </linearGradient>
    <linearGradient id="paint15_linear" x1="528" y1="392" x2="492" y2="376" gradientUnits="userSpaceOnUse">
      <stop stop-color="#7E8EFF" />
      <stop offset="1" stop-color="#FF8FC5" />
    </linearGradient>
    <linearGradient id="paint16_linear" x1="492" y1="376" x2="468" y2="404" gradientUnits="userSpaceOnUse">
      <stop stop-color="#FF8FC5" />
      <stop offset="1" stop-color="#7E8EFF" />
    </linearGradient>
    <filter id="filter0_f" x="76" y="40" width="280" height="232" filterUnits="userSpaceOnUse" color-interpolation-filters="sRGB">
      <feFlood flood-opacity="0" result="BackgroundImageFix" />
      <feBlend mode="normal" in="SourceGraphic" in2="BackgroundImageFix" result="shape" />
      <feGaussianBlur stdDeviation="28" result="effect1_foregroundBlur" />
    </filter>
    <filter id="filter1_f" x="380" y="188" width="304" height="288" filterUnits="userSpaceOnUse" color-interpolation-filters="sRGB">
      <feFlood flood-opacity="0" result="BackgroundImageFix" />
      <feBlend mode="normal" in="SourceGraphic" in2="BackgroundImageFix" result="shape" />
      <feGaussianBlur stdDeviation="28" result="effect1_foregroundBlur" />
    </filter>
  </defs>
</svg>
